<?xml version="1.0" encoding="utf-8"?>
<!DOCTYPE svg PUBLIC "-//W3C//DTD SVG 1.1//EN" "http://www.w3.org/Graphics/SVG/1.1/DTD/svg11.dtd">
<svg version="1.1" id="Layer_1" xmlns="http://www.w3.org/2000/svg" xmlns:xlink="http://www.w3.org/1999/xlink" x="0px" y="0px"
	 width="46.563px" height="66.562px" viewBox="0.219 0 46.563 66.562" enable-background="new 0.219 0 46.563 66.562"
	 xml:space="preserve">
<g>
	<path fill="#5f6aef" d="M40.063,6.719c4.375,4.375,6.613,9.897,6.719,16.563c-0.938,9.48-4.819,18.882-11.641,28.203
		C28.316,60.808,24.438,65.832,23.5,66.562c-0.938-0.73-4.819-5.754-11.641-15.078C5.036,42.164,1.156,32.762,0.219,23.281
		c0.103-6.665,2.344-12.188,6.719-16.563S16.832,0.105,23.5,0C30.165,0.105,35.688,2.344,40.063,6.719z M29.438,29.219
		c1.563-1.563,2.344-3.54,2.344-5.938c0-2.395-0.781-4.375-2.344-5.938S25.895,15,23.5,15c-2.397,0-4.375,0.781-5.938,2.344
		s-2.344,3.542-2.344,5.938c0,2.397,0.781,4.375,2.344,5.938s3.54,2.344,5.938,2.344C25.895,31.563,27.875,30.781,29.438,29.219z"/>
</g>
</svg>
